<?xml version="1.0"?>
<svg xmlns="http://www.w3.org/2000/svg" viewBox="0 0 64 64" width="512" height="512">
    <g id="Solid">
        <path fill="#fff" d="M46.436,13.661a7.855,7.855,0,0,1,3.9,3.9,1,1,0,1,0,1.82-.827,9.852,9.852,0,0,0-4.894-4.9,1,1,0,1,0-.829,1.82Z"/>
        <path fill="#fff" d="M47.419,8.775a12.007,12.007,0,0,1,7.806,7.807,1,1,0,0,0,1.906-.605,14.006,14.006,0,0,0-9.109-9.108,1,1,0,1,0-.6,1.906Z"/>
        <path fill="#fff" d="M61.972,15.193A17.891,17.891,0,0,0,48.807,2.029a1,1,0,1,0-.475,1.942,15.9,15.9,0,0,1,11.7,11.7,1,1,0,0,0,.971.762.969.969,0,0,0,.238-.029A1,1,0,0,0,61.972,15.193Z"/>
        <path fill="#fff" d="M54,48a7,7,0,1,0,7,7A7.009,7.009,0,0,0,54,48Zm0,11a4,4,0,1,1,4-4A4,4,0,0,1,54,59Z"/>
        <circle fill="#fff" cx="54" cy="55" r="2"/>
        <path fill="#fff" d="M14,38A12,12,0,1,0,26,50,12.01,12.01,0,0,0,14,38Zm0,17a5,5,0,1,1,5-5A5.006,5.006,0,0,1,14,55Z"/>
        <circle fill="#fff" cx="14" cy="50" r="3"/>
        <path fill="#fff" d="M54,39a2,2,0,0,0,2,2h3a1,1,0,0,0,1-1V38a1,1,0,0,0-1-1H56A2,2,0,0,0,54,39Z"/>
        <path fill="#fff" d="M54,46a8.945,8.945,0,0,1,5,1.523V43H56a4,4,0,0,1,0-8h2.577A5,5,0,0,0,54,32H36L32.038,20A2,2,0,0,0,32,16H6a2,2,0,0,0,0,4H7V35.642A15.975,15.975,0,0,0,2.267,39.13a1,1,0,1,0,1.466,1.359A14,14,0,0,1,28,50a13.9,13.9,0,0,1-.279,2.8A1,1,0,0,0,28.7,54H45.059A9.014,9.014,0,0,1,54,46ZM17,31a1,1,0,0,1-1,1H10a1,1,0,0,1-1-1V21a1,1,0,0,1,1-1h6a1,1,0,0,1,1,1ZM34,52H30V50h4Zm0-5H30V45h4Zm0-6a1,1,0,0,1-1,1H30.706a1,1,0,0,1-.875-.532A18.028,18.028,0,0,0,19.7,32.935a1,1,0,0,1-.7-.945V21a1,1,0,0,1,1-1h9.21a1,1,0,0,1,.95.687l3.79,11.482a1.01,1.01,0,0,1,.05.313Zm7,0a1,1,0,0,1-2,0V37a1,1,0,0,1,2,0Zm4,0a1,1,0,0,1-2,0V37a1,1,0,0,1,2,0Zm2,0V37a1,1,0,0,1,2,0v4a1,1,0,0,1-2,0Z"/>
        <path fill="#fff" d="M46,24a1,1,0,0,0-1-1H44V21a2,2,0,0,1,2-2,1,1,0,0,0,0-2,4,4,0,0,0-4,4v2H41a1,1,0,0,0-1,1v6h6Z"/>
    </g>
</svg>
