<svg xmlns="http://www.w3.org/2000/svg" width="104" height="54" viewBox="-1.5 -2.9 104 54" class="logo"><path fill="#7ac7f5" d="M99.1 7.3c-1 2.9-2.3 3.5-2.7 3.6-.7.2-1.2-.4-.9-1.5.5-2 1.5-4.3 2.2-6 .7-2.2.3-3.7-1.8-3.3l-1.1.3-.5 1.5a2.8 2.8 0 0 0-3-1.3c-2.7.4-5 2.5-6.6 7.4l-.4 1.3c-1 3.6-2.5 4.5-3 4.5-.8.2-1.3-.4-1-1.5.5-2 1.6-4.3 2.2-6 .7-2.2.3-3.7-1.8-3.3l-1.1.3c-.2 1.4-.8 2.8-1.5 4.4-.6 1.7-2.5 2.5-4 2.8.3-.8.6-1.5.7-2.2.7-2.4 0-4.2-2.1-3.8a5 5 0 0 0-1.2.4c.1 1.2 0 2-.6 3.6-.2.9-.6 1.7-1 2.6-1.3 3.7-3.2 5.5-4.1 5.7-.7.2-1.1-.4-.8-1.6.5-1.9 1.5-4.2 2.1-6 .8-2.1.3-3.7-1.8-3.3a5 5 0 0 0-1.1.4c-.4 2.1-1.6 4.5-2.5 7-1.2 3.1-2.7 5-3.7 5-.4 0-.9-.5-.6-1.6.5-2 1.5-4.3 2.2-6 .7-2.2.3-3.7-1.8-3.3l-1.1.3c-.5 2.6-2.2 5.5-3 8.5l-.1.6c-1.1 1.8-2.2 2.8-2.9 3-.7 0-1.1-.5-.8-1.7.5-1.9 1.5-4.2 2.1-6 1-2.5 0-4-2.6-3.4C46 9.3 41 14.5 39 20c-1.2 3.2 0 4.7 1.4 4.6.9 0 1.6-.4 2-.7a16 16 0 0 1 1-6c1-3 3.5-7.1 4.7-7.4.4 0 .5.3.3 1-.7 1.9-1.6 4-2.2 6-.9 3.4.6 5.6 3.2 5.1 1.7-.3 3.2-1.6 4.3-3.3.4 1.4 1.6 2.2 3.3 1.9 1.6-.4 3-1.7 4.2-3.5.4 1.5 1.6 2.3 3.3 2 1.6-.3 3-1.5 4-3 .2 1.5 1.2 2 2.4 1.8.6-.1 1.3-.4 1.5-.7-.2-.7-.1-1.4 0-2.2.2-1.2.6-2.3 1-3.3 1 0 2.4-.5 3.5-1.4l-.3.8c-.8 3.4.7 5.6 3.3 5 2-.3 3.2-1.5 4.3-3.3.5 1.7 1.7 2.5 3.4 2.2 1.6-.3 3-1.7 4-3.4.5 1.3 1.8 2 3.5 1.7 1.8-.4 3.6-2 4.5-3.6.5-.8.8-2.3-.5-3.1zm-10.2 5c-1 .2-1-1.6-.5-3.7.6-2.1 2.2-5.5 3.9-5.8 1-.3 1.2 1.2.8 2.7l-1.2 3c-.6 1.5-1.9 3.6-3 3.8zM34.2 11.6c-3 .3-6.6 2.7-8.2 7.6-1.6 4.8.7 8.1 4 7.5 2.8-.5 6.2-2.8 7.8-7.7 1.6-4.5 0-7.8-3.6-7.4zm-.2 7.3c-1 2.6-2.5 5.7-4 5.7-1.3 0-.8-3-.3-4.8.8-2.7 2.6-6 4.2-6.2 2-.4.5 4.1 0 5.3zM12.8 8.1C7.4 9 3 13 1.1 17.1c-1.8 4.2-.5 8 2.8 7.6 0 0 0-4.4 1.9-8.2 1.9-4 4.6-6.3 7.5-6.8 5.8-.9 7.6 6.4 5.9 12.6-1.4 4.8-3.8 7.7-6.7 8.3-.6 0-1.4 0-2.2-.2l1-1.8c1.6-3.5 3.2-8 4-11 .7-3.5-1.6-4.5-3.5-4.8 0 0-2.2 10.7-4.9 16.7-.9-.2-1.7-.4-2.5-.3C1.6 29.4 0 31 0 32.7c0 1.8 1.6 2.9 3.9 2.4a9.5 9.5 0 0 0 5-3c1.7.5 3.5.8 4.8.5 5.4-1 8.4-5.4 9.7-9.7 2.3-8.5-2.2-16-10.6-14.8zM4 33.4c-.6.2-1.2-.4-1-1 .2-1.4 1.8-2 1.8-2l1.4.6c-.7 1.3-1.5 2.2-2.2 2.4zM81.8 24l-.9.2-.3 1.2c-.4-.6-1.1-1.2-2.3-1-2.2.3-4 2-5.3 5.7 0 .4-.2.7-.3 1-.7 2.9-1.9 3.5-2.3 3.6-.6.1-1-.3-.7-1.3.4-1.4 1.2-3.2 1.7-4.6.5-1.7.2-3-1.4-2.6l-1 .3c-.1 1-.6 2.2-1 3.3-.5 1.4-2 2-3.2 2.3l.6-1.8c.5-1.8-.1-3.2-1.7-2.9l-1 .3c.2 1 0 1.6-.4 2.8L61.1 34c-.5 1.4-2.5 3.5-4.1 3.8-1.1.2-1.9-.5-2.1-1.8 3.7-1.4 5.6-3.9 5.5-5.5 0-1.6-1.3-2.4-3-2-2.4.4-4.7 2.8-5.4 5.4-.3.9-.4 1.7-.3 2.5a4.7 4.7 0 0 1-2.6 2.4c-.5 0-.9-.2-.6-1 .5-1.4 1.7-3.3 2.2-4.7.6-1.6-.2-3.3-3-2.8-2.7.6-4 2.3-3.8 3.3.2.7 1.2.8 1.2.8.1-.6 1.2-2.5 2.2-2.7.7 0 .9.5.7 1-.6 1.8-1.7 3.4-2.3 5-1.1 2.4 0 4 2 3.6 1.8-.4 3.2-1.9 4.4-3.3.7 1.5 2.1 2.2 3.9 2a8.1 8.1 0 0 0 4.5-3c0 1.3.9 1.6 1.8 1.5.5-.1 1-.4 1.2-.6v-1.7c.2-.9.4-1.8.7-2.5.8-.1 2-.4 2.8-1.1l-.2.6c-.7 2.6.5 4.3 2.5 4 1.5-.4 2.5-1.3 3.4-2.7.4 1.3 1.3 2 2.6 1.7 1-.2 2-1.2 2.9-2.4-.5 2.5-1 4.6-2.8 5a2 2 0 0 1-2.3-1.3c-.7.4-1.2 1.1-1 2 .3 1.5 1.8 2.2 3.5 2 3-.6 4.4-2.8 5-5.6.8-4.1 1.3-6 2.6-9.3.6-1.6.2-2.9-1.4-2.6zm-24.5 6.2c.5 0 .8.3.7.7 0 1-1.6 2.9-3.2 3.7v-.2c.2-1.4 1.2-4 2.5-4.2zm21.8-.5c-.4 1.2-1.8 3.6-2.8 3.8-.8.1-.8-1.3-.3-3 .4-1.5 1.7-4.2 3-4.5.8-.1 1 1 .7 2a54 54 0 0 0-.6 1.7zM43.8 40c.6-.8.6-1.7-.1-2.3-.7 1.3-2.4 3-4 3.3-1.1.2-1.9-.5-2.1-1.8 3.8-1.4 5.6-3.9 5.5-5.5 0-1.6-1.3-2.3-3-2-2.4.4-4.6 2.8-5.4 5.4-1.2 4 1 6.6 4 6a8.3 8.3 0 0 0 5-3zM40 33.5c.5 0 .8.3.7.7 0 1-1.6 2.9-3.2 3.7v-.2c.2-1.4 1.2-4 2.5-4.2z"></path><path fill="#7ac7f5" d="M32.6 42.2c-.3-5 2.2-8.8 2.4-11.1 0-1.2-.6-3-3-2.5-3.2.6-6 4.3-7.4 7.7-2 4.6-2.5 10-4.2 10.3-.9.1-1.2-.9-.8-3 .4-2.2 1.6-4 1.6-4 0-.1-.4-.5-1.3-.3-1.8.3-3.8 3-3.2 5.9.4 2.2 1.7 3.3 4 2.9 2.5-.5 4.2-2.6 5.9-8.4 1.6-5.6 3.9-9.7 5.3-10 .9-.2.5 1.2-.1 2.8-.8 2-3.1 8-2.3 12.1.4 1.9 1.5 3.1 3.2 2.8a3 3 0 0 0 2.2-1.8c-1.5-.2-2.2-1.7-2.3-3.4zM63.3 40.1c-4.6.9-10.8 4.6-16.3 5.7-5.1 1-6.8 0-7.3-1.1-.4.1-1.8.9-1.5 2.3.3 1.4 2.1 2.6 7 1.7C52.3 47.3 57 44 62 43.2c3-.6 5-.5 6.3.5 0 0 .8-.7.6-1.8-.2-1.5-1.8-2.6-5.7-1.8z"></path></svg>