<?xml version="1.0" encoding="utf-8"?>
<!-- Generator: Adobe Illustrator 15.1.0, SVG Export Plug-In . SVG Version: 6.00 Build 0)  -->
<!DOCTYPE svg PUBLIC "-//W3C//DTD SVG 1.1//EN" "http://www.w3.org/Graphics/SVG/1.1/DTD/svg11.dtd">
<svg version="1.1" id="Layer_1" xmlns="http://www.w3.org/2000/svg" xmlns:xlink="http://www.w3.org/1999/xlink" x="0px" y="0px"
	 width="144px" height="32px" viewBox="-225.5 436.5 144 32" enable-background="new -225.5 436.5 144 32" xml:space="preserve">
<g>
	<g>
		<path fill="#03559D" d="M-225.5,468.49h62.747l-31.356-31.198L-225.5,468.49z M-179.822,464.869l-4.671-4.645l-4.669,4.645h-3.074
			l6.207-6.172l-2.394-2.379l-8.599,8.551h-3.209l10.203-10.146l-2.356-2.344l-12.564,12.49h-3.212l14.168-14.088l-2.392-2.379
			l-16.559,16.467h-3.12l21.9-21.775l21.901,21.775H-179.822z M-102.045,465.867c-0.582,0.267-1.334,0.619-2.719,0.619
			c-0.98,0-2.641-0.305-2.738-2.322V451.93h4.439l1.252-2.268l-5.691,0.004l-0.008-3.723h-0.602
			c-0.262,0.478-0.744,1.131-1.766,2.222c-1.047,1.116-3.107,2.493-3.266,2.667v1.09c0.152,0,2.02,0.006,2.02,0.006v11.336
			c0,3.469,1.691,5.229,5.033,5.229c2.396,0,4.555-0.967,5.283-1.805l-0.475-1.172
			C-101.277,465.516-101.693,465.709-102.045,465.867z M-127.762,465.471c-0.709-1.084-1.174-2.342-1.622-3.558
			c-0.162-0.438-0.321-0.871-0.49-1.29l-9.64-23.932h-0.898l-13.113,28.213c-0.625,1.375-1.535,1.666-2.201,1.879
			c-0.213,0.068-0.375,0.113-0.6,0.154v1.399h8.229v-1.399c-0.274-0.063-0.522-0.115-0.786-0.18
			c-0.858-0.203-1.771-0.48-1.771-2.137c0-0.52,0.162-1.133,0.274-1.396l2.731-6.004c0.342-0.722,0.897-0.759,1.779-0.759h9.396
			c1.01,0,1.217,0.478,1.625,1.427l1.387,3.561c0.098,0.267,0.221,0.576,0.354,0.906c0.426,1.069,0.955,2.401,0.955,3.082
			c0,0.678-0.477,0.994-1.271,1.291c-0.238,0.09-0.435,0.146-0.642,0.209v1.399l9.438,0.006v-1.396
			c-0.521-0.072-0.625-0.09-0.855-0.129C-126.287,466.68-127.102,466.488-127.762,465.471z M-136.557,453.982
			c0,0-0.066,0.09-0.555,0.09h-8.455c-0.361,0-0.416-0.082-0.416-0.084c0,0-0.041-0.07,0.088-0.33l4.821-10.422
			c0.058-0.112,0.101-0.176,0.13-0.211c0.021,0.035,0.057,0.094,0.098,0.191l4.185,10.338
			C-136.533,453.893-136.545,453.966-136.557,453.982z M-117.635,464.645V436.5c0,0-3.875,1.794-5.766,2.238
			c-0.072,0.015-0.375,0.074-0.375,0.074V440c0,0,0.52,0.049,0.772,0.085c0.877,0.124,1.747,0.333,1.747,1.731v22.92
			c-0.041,1.525-0.998,1.854-1.861,2.057c-0.242,0.059-0.499,0.109-0.658,0.145v1.4c0.059,0.002,0.115,0.001,0.18,0.001
			c0.1,0,1.99-0.001,3.768-0.003c2.176,0.001,4.752,0.003,4.877,0.003c0.07,0,0.139,0.001,0.204-0.001v-1.4
			c-0.183-0.031-0.405-0.063-0.685-0.121C-116.439,466.609-117.635,466.253-117.635,464.645z M-82.184,466.648
			c-1.008-0.205-2.201-0.561-2.201-2.16v-3.813v-6.808c0-4.311-5.352-4.645-6.984-4.645h-0.001
			c-0.101-0.005-0.198-0.006-0.298-0.006c-4.52,0-7.016,2.869-7.123,4.993l2.346,1.224l0.563-0.363l0.024-0.025
			c-0.037-0.297-0.059-0.628-0.029-0.934c0.021-0.228,0.057-0.444,0.104-0.653c0.383-1.584,1.607-2.625,3.637-2.625
			c2.479,0,4.145,1.392,4.145,3.463v3.074c-9.877,1.683-10.709,4.403-10.709,6.827c0,2.896,1.59,4.305,4.859,4.305
			c2.264,0,4.59-0.844,6.432-2.32c0,0,0,0.002,0.001,0.002v0.021l0.87,1.958h5.049v-1.394
			C-81.684,466.738-81.904,466.706-82.184,466.648z M-88.002,463.555c0,2.075-2.766,3.209-4.188,3.209
			c-2.246,0-3.248-0.964-3.248-3.121c0-3.207,4.166-4.059,6.924-4.621c0.176-0.037,0.348-0.072,0.512-0.104V463.555L-88.002,463.555
			z"/>
	</g>
</g>
</svg>
